<mxfile host="app.diagrams.net" modified="2022-01-17T08:03:53.263Z" agent="5.0 (Windows NT 10.0; Win64; x64) AppleWebKit/537.36 (KHTML, like Gecko) Chrome/97.0.4692.71 Safari/537.36" etag="0_U0A0n0VWsGOTwdwXNy" version="16.2.7" type="github">
  <diagram id="wwnI6qp9evsiYuaTQJnZ" name="Page-1">
    <mxGraphModel dx="782" dy="436" grid="1" gridSize="10" guides="1" tooltips="1" connect="1" arrows="1" fold="1" page="1" pageScale="1" pageWidth="827" pageHeight="1169" math="0" shadow="0">
      <root>
        <mxCell id="0" />
        <mxCell id="1" parent="0" />
        <mxCell id="yDHcFlpSf3KFeRSRGNtz-9" style="edgeStyle=orthogonalEdgeStyle;rounded=0;orthogonalLoop=1;jettySize=auto;html=1;exitX=0.5;exitY=0;exitDx=0;exitDy=0;entryX=0.5;entryY=1;entryDx=0;entryDy=0;shape=flexArrow;fillColor=#f5f5f5;strokeColor=#666666;" edge="1" parent="1" source="yDHcFlpSf3KFeRSRGNtz-1" target="yDHcFlpSf3KFeRSRGNtz-8">
          <mxGeometry relative="1" as="geometry" />
        </mxCell>
        <mxCell id="yDHcFlpSf3KFeRSRGNtz-1" value="" style="rounded=1;whiteSpace=wrap;html=1;fillColor=#fff2cc;strokeColor=#d6b656;" vertex="1" parent="1">
          <mxGeometry x="90" y="180" width="470" height="170" as="geometry" />
        </mxCell>
        <mxCell id="yDHcFlpSf3KFeRSRGNtz-3" value="IPMI-EXPORTER" style="rounded=1;whiteSpace=wrap;html=1;fillColor=#dae8fc;strokeColor=#6c8ebf;" vertex="1" parent="1">
          <mxGeometry x="100" y="280" width="440" height="60" as="geometry" />
        </mxCell>
        <mxCell id="yDHcFlpSf3KFeRSRGNtz-5" value="IPMI账户同步" style="rounded=1;whiteSpace=wrap;html=1;fillColor=#e3c800;fontColor=#000000;strokeColor=#B09500;" vertex="1" parent="1">
          <mxGeometry x="110" y="210" width="120" height="60" as="geometry" />
        </mxCell>
        <mxCell id="yDHcFlpSf3KFeRSRGNtz-6" value="EVENT LOG 采集" style="rounded=1;whiteSpace=wrap;html=1;fillColor=#60a917;fontColor=#ffffff;strokeColor=#2D7600;" vertex="1" parent="1">
          <mxGeometry x="260" y="210" width="120" height="60" as="geometry" />
        </mxCell>
        <mxCell id="yDHcFlpSf3KFeRSRGNtz-7" value="EVENT LOG 推送" style="rounded=1;whiteSpace=wrap;html=1;fillColor=#1ba1e2;fontColor=#ffffff;strokeColor=#006EAF;" vertex="1" parent="1">
          <mxGeometry x="420" y="210" width="120" height="60" as="geometry" />
        </mxCell>
        <mxCell id="yDHcFlpSf3KFeRSRGNtz-8" value="AXE-JOB-AGENT" style="rounded=1;whiteSpace=wrap;html=1;fillColor=#d5e8d4;strokeColor=#82b366;" vertex="1" parent="1">
          <mxGeometry x="90" y="70" width="470" height="60" as="geometry" />
        </mxCell>
      </root>
    </mxGraphModel>
  </diagram>
</mxfile>
